<svg xmlns="http://www.w3.org/2000/svg" aria-hidden="true" viewBox="0 0 400 440.74"><defs><clipPath id="clip-path"><path d="m100.57 362.93-4.75 8.19a9.8 9.8 0 0 1-2.17 2.58l-38.52 32.75-1.75 16.62a4.63 4.63 0 0 0 1.14 3.48c1.15 1.33 2.6 4 2.6 8.77H37.21l9.5-37.05a7.6 7.6 0 0 1 1.68-3.15l22.82-25.44a10 10 0 0 0 2.36-4.78c1.39-7.26 5.19-27.13 6.89-35.47 2.09-10.29 10.29-39.46 52.05-23.06 3.72 1.46 8.07 2.05 11.94 3 7.15 1.76 14.24 3.58 21.48 4.93a273.7 273.7 0 0 0 45.78 4.62c2 0 4 .29 6 .4 0 0 20.44-4.36 27.71 11.28a24.9 24.9 0 0 0 5.44 7.4l13.94 13.35L242.13 388l-4.58-3.24s-3.81 2.29-9.15-1.14c0 0-7.43 5.15-15.25 2.1 0 0-3.43 2.86-12.58 5.72s-27.27 3.24-43.09-7.25-29.93-24.82-43.28-26.19a40 40 0 0 0-5.86 0 9.87 9.87 0 0 0-7.77 4.93" class="cls-1"/></clipPath><style>.cls-1{fill:none}.cls-3{fill:#208d77}.cls-4{fill:#003545}.cls-10{fill:#006684}.cls-6{fill:#fbb880}.cls-7{fill:#ffdaa4}.cls-8{fill:#2fab95}.cls-9{fill:#0b5467}.cls-16{fill:#fff}.cls-18{fill:#86644c}.cls-19{fill:#684227}.cls-22{fill:#c14d3a}.cls-24{fill:#432515}.cls-25{fill:#a57d5a}</style></defs><g style="isolation:isolate"><g id="Layer_15" data-name="Layer 15"><path d="M225.11 88c5.11.07 2.74 25.78 0 25S213 104 213 104l7-10.43Z" class="cls-3"/><path d="M150.24 25.7c-3.34-4.87-8.58-7.44-13.9-6.7l.16-.14a16.83 16.83 0 0 0-14.43 7.48 38 38 0 0 1 5.5-2.68 24.4 24.4 0 0 0-3.52 4.58C116.43 41 120.47 68.74 137.14 74c0 0-12.32-8.27-7.24-21.56 0 0 .45 10.17 4.32 13.22 0 0-3.81-27.83 5.34-27.13s14.89 3.07 17.61-1.68-6.93-11.15-6.93-11.15M192.75 20.17a17.69 17.69 0 0 1 0 20.61C185.27 52 182.4 22.6 182.4 22.6Z" class="cls-4"/><ellipse cx="196.99" cy="435.7" rx="184.56" ry="1.23" style="fill:#006684;opacity:.2"/><path d="m193.26 45 3.3 8.53a1.69 1.69 0 0 1-1.05 2.22L190 57.6Z" class="cls-6"/><path d="M176.59 85.37c8.58-1.18 14.44-1.18 37.72 1.68s29.41-1.39 29.41-1.39-15.59-33.5-30.57-47.18 6.85-8.15 6.85-8.15 34.31 37.32 45.47 60.12a3.91 3.91 0 0 1-1.64 5.14c-11.51 6.32-49.13 23.75-80.35 18.73Z" class="cls-7"/><path d="M222.14 100.8c8.36 4 49.05-3.07 42.05-12.79 0 0 4.22 5.22-.81 7.81s-21.86 11-39.19 15.32c0 0-10.41-14.32-2.05-10.34" class="cls-6"/><path d="M176.59 85.37c8.58-1.18 14.44-1.18 37.72 1.68 15.36 1.89 23.26.68 26.86-.37a2.46 2.46 0 0 0 1.55-3.35C239 75 225.88 50.1 213.15 38.48c-15-13.69 10.21-4 10.21-4s30.92 33.17 42.08 56a3.92 3.92 0 0 1-1.63 5.14c-11.51 6.32-49.13 23.75-80.36 18.73Z" class="cls-1"/><path d="M172.48 78.94A97.4 97.4 0 0 0 200 85.66c16.16 1.61 0 19.68 0 19.68l-18.94 10-14.64-34.46Z" class="cls-3"/><path d="M225.11 88c-3.11-.12-6.68-.4-10.8-.91-23.28-2.86-29.14-2.86-37.72-1.68l6.86 28.95c13.26 2.13 28.54 2.05 41.62-1.34-4.07-13.69-2.3-22.14.04-25.02" class="cls-3"/><path d="m213.43 33.36 2.22-.66-9.3-3.2c2.68 3.23-1.51 6.39-1.53 6.4l-3.42 2.58s-2.29 1-1 3.62l16.78-6.23Z" class="cls-6"/><path d="M149.16 80.06c3.12-2.82 4.53-13.43 5.7-20.42s8.92-7.25 8.92-7.25L181.66 72s-8.35 1.25-8.62 4.16c-.49 5.22 1.31 6.14 1.31 7.28s4.42 2 2.64 6.58-2.92 7.37-2.92 7.37-28.07-14.5-24.91-17.33" class="cls-7"/><path d="M145.82 21s-10.54 5.32-3 16.81l5.42-8.25Z" class="cls-8"/><path d="m179.34 257.75-35.27 67.83-26.69-36.56 24.66-70.16z" class="cls-9"/><path d="M165.64 277.13c3 5.71 4.54 12.11 6.94 18.05L189 335.77l18.43 45.48 13.2 32.58 2.42 6h26.12S203.43 248.6 204.38 233s-68.77-26.47-66.75-5a62.9 62.9 0 0 0 7.19 23.92 53 53 0 0 0 7.38 10.41c3.46 3.8 8.58 7.05 11.63 11.7a34 34 0 0 1 1.81 3.1" class="cls-10"/><path d="M139.37 140.15c2.29 14.11 4.73 33.53-3 59.87-2.8 9.56-4 16.76-.59 23.46a29 29 0 0 0 1.76 3.18c12 4.31 61.94 12.91 72.18-5.93 0 0-.24-1.26 2.43-12.32s-1-45.1-8.21-55c0 0 6.94-13.25-4-34.09-9-17.14-18.3-30.39-22.12-35.09 0 0-3.78-5.39-6.89-6.12-7.52-1.75-18.76.13-18.78.13-4.92-.69-16.53 13.3-19 16.75-3.5 4.86-26.94 44.46-26.83 45.17 0 0 5.63 14.73 20 13.45Z" class="cls-8"/><path d="M205 150.37c-6.26 20.57-34.29 17.28-39.77 42.78-8.77 40.78-27.7 33.51-27.7 33.51s44 14.23 76.3-1.52-8.83-74.77-8.83-74.77" class="cls-3"/><path d="M135.26 203.26s15.54 20.26 32 22.51-4.46-16.48-4.46-16.48l-22.31-10.69Z" class="cls-3"/><path d="M173.45 82.22s13.73 19.65 4.31 22.63c-13.75 4.34-30.89-21.48-28.6-24.79 0 0 .55-.32 3.29-7.46s21 9.62 21 9.62" class="cls-7"/><path d="M164.17 58.57s-.25 1.57-.26 1.66c-1.23 10.37.59 19.68 7.38 27.77.83 1 1.85 2 3.14 2a1.91 1.91 0 0 0 1.71-.91c.74-.87.51-1.83-.4-3.25a16 16 0 0 1-1.42-2.84c-4.12-9.48 8.13-9.71 10.43-11.2s-20.57-13.23-20.58-13.23" class="cls-6"/><path d="M192.75 30.85s6.61 24.92-5.34 39.22a5.47 5.47 0 0 1-5.19 1.79c-.8-.15-1.72-.33-2.68-.53a21.85 21.85 0 0 1-14.32-10l-4.8-8s-4.1 1.14-5.51-4.44-.82-8.59 1.1-9.26 4.07-.07 4.78 2l4 2.9 5.61-14.25Z" class="cls-7"/><path d="M177.5 30.55s14.6 13.07 16.13 25.84c0 0 2.52-12.92-.88-25.54Z" class="cls-6"/><path d="M192.75 20.17c-5.14-5.33-13.79-7.32-20.88-7.87-6.87-.54-14.44-.42-20.74 2.69-9 4.45-10.56 15.18-8.4 24.14a45.1 45.1 0 0 0 5 11.91c1.93 3.34 4.83 6.61 4.94 10.67 0 1.56-2.08 8.37.86 8.36l.34-.77 5.58-15.88-1.77-11.13 4 5.91h.39l.43-.08h.06c.17 0 .36-.08.56-.14h.09l.68-.21h.09l.79-.29h.07c.29-.12.59-.24.89-.39a15.5 15.5 0 0 0 2-1.13h.06c.31-.22.63-.46.95-.72l.1-.08c.31-.26.61-.54.92-.84l.11-.11c.3-.31.59-.63.87-1l.11-.13c.28-.36.56-.73.82-1.13l.09-.15q.39-.62.75-1.32l.06-.12c.23-.49.46-1 .66-1.55v-.06a18 18 0 0 0 .55-1.81l-1.36 7.17c4.12-7.74 1.79-9.43 1.79-9.43l18.48-3.62s5.21-5.55.06-10.89" class="cls-4"/><path d="M106.36 140.05s-10.46 18.5-11.89 20.6-2.47 4 0 7.53 29.27 30.75 63.78 48a17.8 17.8 0 0 0-.59-15.89s-27-14.92-40.69-38.13l9.44-8.67ZM225.07 36.54c-7.69-8.51-6.64-12.62-24.69-11.86s-18.63 2.51-18.63 2.51.45 2.94 5 2.31 18.56-1.15 19.57 0 7.37 9 7.37 9Z" class="cls-7"/><ellipse cx="187.88" cy="47.73" rx="1.02" ry="1.76" style="fill:#231f20"/><path d="M106.36 140.05s3.46 12.78 20 13.45l6.06-6.29-12-9.25Z" class="cls-8"/><path d="M182.4 42.1a6 6 0 0 1 1.74-1.88 6.4 6.4 0 0 1 2.39-1.09 5.2 5.2 0 0 1 2.65.1 5 5 0 0 1 2.19 1.34A12 12 0 0 0 189 40a6.8 6.8 0 0 0-2.29.11 13.5 13.5 0 0 0-4.31 1.99" class="cls-4"/><path d="M171 293v141.83h64.76A187.24 187.24 0 0 0 171 293" style="fill:#fff;mix-blend-mode:multiply"/><path d="M179.69 212.47s15-.86 15 18.21" style="fill:none;stroke:#fff;stroke-miterlimit:10;stroke-width:1px"/><path d="M94.47 160.65c-1.43 2.09-2.47 4 0 7.53 2.24 3.18 24.26 25.66 53.89 42.69q4.81 2.77 9.89 5.32s5.24-.33 0-3.06c-16.55-8.62-49.66-30.25-58.7-40.6-1.87-2.13-7.47-6.26-5.08-11.88M129.42 150.37l-16.7-1.46s12 8.66-3.52 13.26l10.22 3.65-2.42-3.68ZM243.72 85.66h6.3l-7.3-2.33z" class="cls-6"/><path d="M152.07 125.53c.31-1.17.66-2.33.89-3.52a33.9 33.9 0 0 0-.51-14.39c.72 13.13-2.15 21-7.58 26.77a76 76 0 0 0-5.5 5.66 69 69 0 0 1 1.22 7.75c.3 3.09 3.23.89 4.48-.25 3.58-3.26 5-6.93 5.69-11.62.4-2.56.35-5.16.72-7.72a22 22 0 0 1 .59-2.68" class="cls-3"/><ellipse cx="161.73" cy="53.76" class="cls-7" rx=".21" ry=".02"/><path d="m163.67 47.01-6.8 10.4-6-19.75h12.8z" class="cls-4"/><ellipse cx="158.79" cy="47.83" class="cls-7" rx="3.94" ry="5.75" transform="rotate(-9.39 158.86 47.86)"/><path d="M263.8 95.59a3.91 3.91 0 0 0 1.64-5.14C254.28 67.65 220 30.33 220 30.33s45 51.57 38.58 66.05 5.22-.79 5.22-.79" class="cls-6"/><path d="M110.89 147.29c12.34 3.08 19.44-1.45 25.94-10.57 6.64-9.32 12.77-2.35 15.62-21.71l-2.24 23.89-10.84 1.15-8.5 11.49a5.4 5.4 0 0 1-4.35 2.18 22 22 0 0 1-15.63-6.43" class="cls-3"/><path d="M107.27 138.38a4.57 4.57 0 0 0 0 3.9l-2.38.36Z" class="cls-7"/></g><g id="bg_shapes"><path d="M47.94 247.57v187.66H235.6c0-103.64-84.02-187.66-187.66-187.66" style="fill:#aededa"/><path d="M358.5 59.91v375.32H170.84V247.57c0-93.38 84.02-187.66 187.66-187.66" style="fill:#e0efed"/><path d="M164.92 224.3a66.7 66.7 0 0 0-1.7 22.07 48.5 48.5 0 0 0 6.57 20.94 40.4 40.4 0 0 0 7 8.49 55 55 0 0 0 8.88 6.55c6.32 3.83 13.19 6.68 19.93 9.82 3.37 1.58 6.71 3.24 9.94 5.13s6.29 4 9.32 6.18a116.6 116.6 0 0 1 16.63 14.91 104.6 104.6 0 0 1 13.22 18 88.3 88.3 0 0 1 8.61 20.53 88.2 88.2 0 0 0-9-20.28 104.7 104.7 0 0 0-13.36-17.7c-10.17-10.73-22.18-19.86-35.75-25.84-6.7-3.15-13.6-6-20-9.94a56 56 0 0 1-9-6.7 39.8 39.8 0 0 1-7.05-8.72 49 49 0 0 1-6.39-21.3 67 67 0 0 1 2.15-22.14" class="cls-16"/></g><g id="Layer_18" data-name="Layer 18"><path d="M365.41 394.09s4.57.57 3.47 7.31c0 0-12.54-5.59-25.61-3.32-15.06 2.62 12.47-5.21 12.47-5.21Z" class="cls-10"/><path d="M307.36 420.64s12.46 9.71 35 9.06c19.07-13.56 3.55-39.33 23.08-35.61-7.14-.93-14.23-2.17-21.37-3.06-6.92-.87-14-1.45-17.89 5.57-1.5 2.73-1.34 6-2.13 9a17.27 17.27 0 0 1-5.45 8.4 35.9 35.9 0 0 1-11.24 6.64" class="cls-16"/><path d="M228.51 183.28c1.51-.41 41.78-8.48 41.78-8.48l1.23-7Z" class="cls-10"/><path d="m262.52 152.38-34.01 30.9 57.6-15.45z" class="cls-16"/><path d="m262.52 152.38-34.01 30.9 57.6-15.45z" class="cls-16"/><path d="m272.4 158.85-26.68 14.83 29.36-13.07-1.09-.72z" style="fill:#006684;opacity:.1"/><path d="M284 156.36a34.1 34.1 0 0 1 12.55-3.72 33.3 33.3 0 0 1 13.07 1.42 32.7 32.7 0 0 1 11.49 6.45 30.6 30.6 0 0 1 7.81 10.62 37.4 37.4 0 0 1 3.06 12.8 41 41 0 0 1-.08 6.58 51 51 0 0 1-.9 6.49c-1.74 8.61-5 16.79-8.12 24.94s-6.09 16.45-7 25.09a36 36 0 0 0 6.39 24.5 49.6 49.6 0 0 0 8.83 9.47 65.4 65.4 0 0 0 10.77 7.3 85 85 0 0 0 11.88 5.4 101 101 0 0 0 12.53 3.77v.1a90.4 90.4 0 0 1-24.72-8.65c-7.75-4.08-15-9.55-20.09-16.81a36.8 36.8 0 0 1-5.58-12 35.2 35.2 0 0 1-1.06-6.55A39.5 39.5 0 0 1 315 247a64.7 64.7 0 0 1 2.86-12.86c1.33-4.18 2.92-8.27 4.53-12.33s3.25-8.12 4.72-12.23a81 81 0 0 0 3.53-12.58 45.7 45.7 0 0 0 .78-13 38.5 38.5 0 0 0-1.07-6.41l-.42-1.57-.55-1.53a20.5 20.5 0 0 0-1.21-3 30.7 30.7 0 0 0-7.64-10.32 31.9 31.9 0 0 0-11.16-6.38 34 34 0 0 0-25.37 1.66Z" class="cls-16"/></g><g id="dog"><path d="M240.89 390.92s4.51 4.25 9 .92-4.65-1.32-4.65-1.32Z" class="cls-9"/><path d="M105.4 303.78a53.6 53.6 0 0 0-9.66-6.66l6.62 5.65Z" class="cls-18"/><path d="m181.44 423.29-3.82 2.53 1.91-2.89z" class="cls-9"/><path d="M273.06 356.36s20.4 5.79 16.65 14.06" class="cls-19"/><path d="M197.52 395.78s-12.2 22.5-13.92 25.17-3.38 3.76-7.72 2.05-12.39-4.44-18-6.77-3.86-8.06-3.53-9.15 1.72-2.24 3.91-1.15c1.67.84 10.84 4.42 15.15 6.09a2.67 2.67 0 0 0 3.35-1.28L187.89 389ZM98.44 361l-5.65 27.8a11 11 0 0 0 1.89 8.63l27.66 37.93h15.25s2.24-5-8.28-8.78a10.6 10.6 0 0 1-3.86-3.37c-1.39-1.95-13.58-21.26-18.2-28.59a4 4 0 0 1 .67-5.05l33.23-30.61-24.66-10.67-16.27 7.88Z" class="cls-9"/><path d="m100.57 362.93-4.75 8.19a9.8 9.8 0 0 1-2.17 2.58l-38.52 32.75-1.75 16.62a4.63 4.63 0 0 0 1.14 3.48c1.15 1.33 2.6 4 2.6 8.77H37.21l9.5-37.05a7.6 7.6 0 0 1 1.68-3.15l22.82-25.44a10 10 0 0 0 2.36-4.78c1.39-7.26 5.19-27.13 6.89-35.47 2.09-10.29 10.29-39.46 52.05-23.06 3.72 1.46 8.07 2.05 11.94 3 7.15 1.76 14.24 3.58 21.48 4.93a273.7 273.7 0 0 0 45.78 4.62c2 0 4 .29 6 .4 0 0 20.44-4.36 27.71 11.28a24.9 24.9 0 0 0 5.44 7.4l13.94 13.35L242.13 388l-4.58-3.24s-3.81 2.29-9.15-1.14c0 0-7.43 5.15-15.25 2.1 0 0-3.43 2.86-12.58 5.72s-27.27 3.24-43.09-7.25-29.93-24.82-43.28-26.19a40 40 0 0 0-5.86 0 9.87 9.87 0 0 0-7.77 4.93" class="cls-18"/><g style="opacity:.3"><path d="M40.41 326.75c18-14.25 44.21-17.16 64.87-7.19 10.48 5.06 16.3-6.69 30.95 15.85 9.55 14.68 34.29-4.78 51.75-6.11 7.16-.54 22.41-3.46 26.6 2.37 1.18 1.65 2 3.58 3.39 5 3.34 3.42 8.79 3.07 13.56 3.23 15.52.52 22.49 12.88 36.24 20.09s29.14 13.78 44.37 10.75a11.2 11.2 0 0 0 5.84-2.6 11.7 11.7 0 0 0 2.43-4.17c8.9-23.05-2.21-50.19-20.94-66.31s-43.51-23.22-67.8-27.75-49.21-7-72.33-15.7c-14-5.27-27-12.73-40.72-18.72a225.7 225.7 0 0 0-54.53-15.84c-12.81-2.07-25.95-3.12-38.74-.93S.06 226.59-8.6 236.25a31.57 31.57 0 0 0-7.9 14.83c-1.53 8 1.11 16.24 5.05 23.35 11.06 20 31.5 32.88 52 43" class="cls-6" style="clip-path:url(#clip-path)"/></g><path d="M207.75 374.94s12.45 9.4 21.35 1.78a8 8 0 0 0 9.28 6.73L236.9 385s-3.92 1.8-8.5-1.44c0 0-7.24 5.15-15.25 2.1s-5.4-10.72-5.4-10.72" class="cls-9"/><path d="M69.47 265.5c2.09 8.62 11.1 37.34 38.34 36.05l-18.63 8.74S63 296.84 68.46 265.54a.52.52 0 0 1 1.01-.04M294.9 394.54a6.85 6.85 0 0 1-.79-4.18c.49-3.78 2.58-5.93 1.06-9.68-.77-1.89-3.14-4.27-3.75-6.21-1.79-5.68-9.75-20.21-26.6-22.54-19.35-2.67-20.4 35.56-20.4 35.56s1.41 8.72 6.63 11.34c1.68.84 11.86 3.53 15.8 6.29 5.47 3.82 18 10.3 18 10.3 5.21 4.32 10.93 2.92 12.33 1.52s10.29-3.43 7.75-8a71 71 0 0 0-4.63-7.27c-1.73-2.39-4.02-4.53-5.4-7.13" class="cls-18"/><path d="M300.38 411.93c-2.45-.09-7.17 8.39-17.93.6-4.28-3.79-11.93-10.6-15.22-13.41-3.91-3.34-5.42-5.51-6.7-10.44-.86-3.32-4.11-4.31-5.36-7.3a26 26 0 0 1-1.66-8.66l-8.62 16a14.24 14.24 0 0 0 2.68 6.85c2.48 3.45 4.67 3.7 7.61 4.68s9.12 3.41 10.65 4.2 6.17 3.88 6.17 3.88 9.88 5.82 15 8.51a11.46 11.46 0 0 0 6.73 1.37c3 .38 5-1.51 6.75-3.88.52-.71 1.52-2.33-.1-2.4" class="cls-9"/><path d="M267.74 403.28c.82-3 5.93-4.79 8.87 0S284.53 416 291.23 416h-2.46l-13.87-8ZM67.83 277.32c1.32 10.23 14.45 29.68 26 30.6l-4.61 2.37s-18.83-8.82-21.39-32.97" class="cls-9"/><rect width="46.24" height="10.74" x="230.21" y="363.86" class="cls-22" rx="1.99" transform="rotate(-56.66 253.317 369.217)"/><path d="m217.54 381.76 12.4-14.47a1.44 1.44 0 0 1 2.48.57c1 3.78 3.27 10.19 8 11.29L236.9 385l-7.9-3.33ZM185.32 372.33a24.7 24.7 0 0 1-18.13 5c-7.22-1.08-13.41-6.66-18.94-11-7.5-5.93-17.17-6-25.91-8.81S111.08 346 111.08 346l-8.38 14.41c16.07-2.11 28.53 4.84 33.44 8.17l2.28 1.68c3.13 2.3 9.33 6.85 19.06 13.93 14.86 10.82 32.39 8.94 32.39 8.94s12.41-33.95-4.55-20.8" class="cls-9"/><path d="m189.79 354.35-10.65 24.36a6 6 0 0 0 1.71 6.54l57.66 50.07h26.31s.12-8.27-10.81-10.05l-10.42-1.78s-2.35-.13-5.15-3.24S213 390.64 213 390.64s-2.42-3.63 1.72-6.81 12.58-8.13 19.63-16.84" class="cls-18"/><rect width="23.68" height="10.74" x="247.69" y="354.43" rx="1.56" style="fill:#eb5b43" transform="rotate(-56.66 259.519 359.8)"/><path d="M270 352.53a.61.61 0 0 0-.84.17l-9.65 14.67c-2.09 3.18-6 2.67-8.48 1l3.25 3.91 1.61.57-10.65 16.2c.94-.65.15.36.42.55a.53.53 0 0 0 .77-.16l23.74-36.09a.6.6 0 0 0-.17-.82" class="cls-22"/><path d="M245.44 330.61a10.7 10.7 0 0 1 1.46 2.7 14.6 14.6 0 0 1 .81 3 13.3 13.3 0 0 1-.31 6.11c-.11-1-.15-2-.27-3s-.23-2-.4-2.94c-.31-1.98-.73-3.89-1.29-5.87M130.65 305.66a9.5 9.5 0 0 1 2.68 1.15c.84.49 1.62 1.06 2.39 1.61a25 25 0 0 0 4.77 3 6.8 6.8 0 0 1-2.85-.69 15 15 0 0 1-2.51-1.52c-1.56-1.14-2.93-2.39-4.48-3.55" class="cls-19"/><path d="m113.63 341-5.08 9.3M189.79 354.35c-.63 1.67-1.28 3.34-2 5s-1.36 3.3-2.07 4.93c-1.42 3.28-2.91 6.53-4.42 9.77l-1.2 2.95a16.3 16.3 0 0 0-1.14 2.88 6.3 6.3 0 0 0-.09 3 5.5 5.5 0 0 0 1.54 2.66 5.2 5.2 0 0 1-1.9-2.56 6 6 0 0 1-.16-3.25 16.5 16.5 0 0 1 1-3.08l1.13-2.94c1.46-3.26 2.93-6.51 4.48-9.73.76-1.61 1.58-3.2 2.36-4.81s1.62-3.25 2.47-4.82" class="cls-9"/><path d="M283.9 371a6.8 6.8 0 0 1-1 4.74c-1.07 1.8-2.61 3.3-3.6 5.15-2.1 3.9-1.56 8.85-3.86 12.63-1 1.61-2.72 3-4.59 2.76-1.63-.2-2.86-1.54-3.85-2.85a28.8 28.8 0 0 1-5.68-12.71 20 20 0 0 1 1.16-10.64c1.48-3.56 4-5.05 7.87-5a24.2 24.2 0 0 1 10.23 2.45 6.6 6.6 0 0 1 2.84 2.25 3.9 3.9 0 0 1 .48 1.22" class="cls-19"/><circle cx="295.9" cy="404.5" r=".3" class="cls-24"/><circle cx="292.6" cy="406.42" r=".3" class="cls-24"/><circle cx="296.2" cy="408.37" r=".3" class="cls-24"/><circle cx="292.91" cy="410.07" r=".3" class="cls-24"/><circle cx="288.47" cy="407.71" r=".3" class="cls-24"/><path d="M96.38 304.63s8.26-3.49 13.68-3.16" class="cls-19"/><path d="M83.41 316s4.1-6.86 12.4-6.19M267.74 349.49a13.22 13.22 0 0 1 5.1 6.87" class="cls-18"/><path d="M303 405a.54.54 0 0 0-.82 0c-1.36 1.57-5.33 6.71-3 10.88.59 1.05 6.63-3.06 7.24-3.74 1.26-1.39.75-3-.85-3.76s-1.66-2.23-2.57-3.38" class="cls-24"/><path d="m53.38 423.07.67-8.33c.22-2.78.5-5.55.75-8.33v-.13l.1-.09c4-3.49 8-6.93 12-10.37l6-5.15 6.1-5.11c4-3.41 8.08-6.81 12.17-10.16l1.52-1.26.77-.63a6 6 0 0 0 .67-.66 23.4 23.4 0 0 0 2.3-3.16l4.15-6.76-3.81 7a20.7 20.7 0 0 1-2.23 3.32 5.7 5.7 0 0 1-.73.74l-.74.66-1.5 1.3c-4 3.49-8 6.93-12 10.37l-6 5.15-6 5.11c-4 3.4-8.07 6.81-12.16 10.16l.12-.22c-.34 2.77-.64 5.54-1 8.3ZM179.14 378.71a6 6 0 0 0 .58 5 6.8 6.8 0 0 0 1.74 1.85l2 1.67 8 6.75 15.84 13.6 15.7 13.75 7.79 7c2.58 2.34 5.17 4.66 7.73 7-2.71-2.2-5.37-4.44-8-6.66l-8-6.74-15.84-13.61-15.7-13.79-7.79-6.95-1.93-1.75a7.1 7.1 0 0 1-1.73-2 6 6 0 0 1-.39-5.12" class="cls-9"/><circle cx="289.58" cy="410.6" r=".3" class="cls-24"/><circle cx="289.68" cy="405.56" r=".3" class="cls-24"/><path d="M205.44 327.41a34 34 0 0 1 4.55 1 14.7 14.7 0 0 1 2.21.87 5.4 5.4 0 0 1 1.07.69 2.1 2.1 0 0 1 .77 1.32l-1.15.07c0-.35-.53-.95-1.13-1.33a12.5 12.5 0 0 0-2-1.08 34 34 0 0 0-4.32-1.54" class="cls-18"/><path d="m177.05 424.37 4.25-1.3-1.51-.55zM91.44 393.21a7.6 7.6 0 0 1 1.35-4.45l1.59 1.11s-2.17-.34-2.94 3.34" class="cls-9"/><path d="M43.57 403a27.8 27.8 0 0 1 4.82-7.9l.54 1.9s-4.09 2.32-5.36 6M166.18 333.48s5.75-2.59 10.73-.38" class="cls-18"/><path d="m170.84 330.48 7.95 3.46h-3.26zM227.46 336.5l9.76 4.21h-3.63z" class="cls-18"/><path d="m173.79 315.66-7.6-3.23 3.8 2.61zM245.56 332.23s2.59-2.77-3.43-8.29c0 0 4.74 4.48.46 8.83" class="cls-25"/><path d="M158.45 375.67s3.53 1 5.57-.36c0 0 3.83.18 1.81 1.14s-7.38-.78-7.38-.78" class="cls-18"/><ellipse cx="289.39" cy="388.75" class="cls-24" rx="2.13" ry="1.67" transform="rotate(-56.66 289.373 388.75)"/><circle cx="289.71" cy="388.26" r=".56" class="cls-16"/><path d="M293 384.9s-2.9-2.95-5.33.26" class="cls-19"/><path d="M226.58 376.74a8.16 8.16 0 0 0 4.65-7.16l-2.27.68s1.66 2.67-2.38 6.48M121.91 359.74s2.62-1.86 8.26-1.76l-1.95 1.07s-4.1-.72-6.31.69" class="cls-18"/></g><g id="Layer_17" data-name="Layer 17"><path d="M156.22 199.6s17.86 10 23.45 12.87c2.94 1.51 6.19 4.1 2.38 11.15-3.43 6.35-8.64 8.46-13.67 9.29-1.07.18-2.15.91-3 .3-2.15-1.48-7.36-11-5.65-9.71 1.71 1.33 7.49 3.27 7.49 3.27s-6.35-7-9-10.58a18.3 18.3 0 0 0-5.79-4.9Z" class="cls-7"/><path d="M183.21 215.58c.31 4-3.16 6.67-6.67 7.67a12.6 12.6 0 0 1-2.35.42c-5.74.1-12.24-5.48-16.75-9.56-1.05-1 2.28-4 2.28-4s-2.69 2.44-6.93 0c-1.74-1-1.44-.68-.48.06-1.13.18-3.45.92 1.4 3.62a32.6 32.6 0 0 1 7.92 6.48l2.26 2.74c.41.48 2.86 4.12-1.34 1.24a17.6 17.6 0 0 0-2.73-1.94 4.7 4.7 0 0 0-3.1-.09.76.76 0 0 0-.39 1.21c1.92 2.3 7.14 8.43 9.29 9.9a3.17 3.17 0 0 0 2.43.48c10.23-2.06 12.21-7.45 14.52-11.27 2.43-3.93.64-6.96.64-6.96M157.3 214l-.87-.79Z" class="cls-6"/><path d="M164.92 224.3c-4.28 16.35-2.74 36.56 9.16 49.43" style="fill:none;stroke:#fff;stroke-miterlimit:10;stroke-linecap:round"/></g></g></svg>